<?xml version="1.0" encoding="UTF-8"?>
<svg id="Layer_2" data-name="Layer 2" xmlns="http://www.w3.org/2000/svg" viewBox="0 0 20 20">
  <defs>
    <style>
      .cls-1 {
        fill: #323333;
      }

      .cls-2 {
        fill: #75c777;
      }
    </style>
  </defs>
  <g id="Dimensions">
    <g>
      <g>
        <rect class="cls-2" x="1" y="1" width="18" height="18" rx="4" ry="4"/>
        <path class="cls-1" d="M15,2c1.65,0,3,1.35,3,3v10c0,1.65-1.35,3-3,3H5c-1.65,0-3-1.35-3-3V5c0-1.65,1.35-3,3-3h10M15,0H5C2.24,0,0,2.24,0,5v10c0,2.76,2.24,5,5,5h10c2.76,0,5-2.24,5-5V5c0-2.76-2.24-5-5-5h0Z"/>
      </g>
      <path class="cls-1" d="M4.03,10.36c.89.97,1.5,2.12,1.83,3.39.26.99,1.53,1.04,2.06.27,2.04-3.01,5.09-5.28,8.55-6.39,1.37-.44.79-2.61-.6-2.17-4.04,1.3-7.51,3.92-9.9,7.43l2.06.27c-.44-1.65-1.26-3.13-2.41-4.38-.98-1.07-2.57.52-1.59,1.59h0Z"/>
    </g>
  </g>
</svg>