<?xml version="1.0" encoding="UTF-8"?>
<svg id="Layer_2" data-name="Layer 2" xmlns="http://www.w3.org/2000/svg" viewBox="0 0 20 20">
  <defs>
    <style>
      .cls-1 {
        fill: #323333;
      }

      .cls-2 {
        fill: #7fd9ff;
      }
    </style>
  </defs>
  <g id="Dimensions">
    <g>
      <g>
        <rect class="cls-2" x="1" y="1" width="18" height="18" rx="4" ry="4"/>
        <path class="cls-1" d="M15,2c1.65,0,3,1.35,3,3v10c0,1.65-1.35,3-3,3H5c-1.65,0-3-1.35-3-3V5c0-1.65,1.35-3,3-3h10M15,0H5C2.24,0,0,2.24,0,5v10c0,2.76,2.24,5,5,5h10c2.76,0,5-2.24,5-5V5c0-2.76-2.24-5-5-5h0Z"/>
      </g>
      <rect class="cls-1" x="4.75" y="4.7" width="10.5" height="1.78" rx=".89" ry=".89"/>
      <rect class="cls-1" x="4.75" y="9.11" width="10.5" height="1.78" rx=".89" ry=".89"/>
      <rect class="cls-1" x="4.75" y="13.53" width="10.5" height="1.78" rx=".89" ry=".89"/>
    </g>
  </g>
</svg>